<svg xmlns="http://www.w3.org/2000/svg" width="1800" height="1000" viewBox="0 0 1800 1000">
  <defs>
    <linearGradient id="bg" x1="0" y1="0" x2="1" y2="1"><stop stop-color="#FBFCFE"/><stop offset="1" stop-color="#F0F8F5"/></linearGradient>
    <filter id="shadow" x="-10%" y="-10%" width="120%" height="140%"><feDropShadow dx="0" dy="7" stdDeviation="12" flood-color="#102A43" flood-opacity=".08"/></filter>
    <symbol id="icon-calendar" viewBox="0 0 24 24"><rect x="3" y="5" width="18" height="16" rx="2"/><path d="M8 3v4M16 3v4M3 10h18M8 14h3M8 17h6"/></symbol>
    <symbol id="icon-input" viewBox="0 0 24 24"><rect x="5" y="3" width="14" height="18" rx="2"/><path d="M9 3v4h6V3M8 12h8M8 16h5"/></symbol>
    <symbol id="icon-chart" viewBox="0 0 24 24"><path d="M4 4v16h16M7 16l4-5 3 2 5-7"/><path d="M16 6h3v3"/></symbol>
    <symbol id="icon-bulb" viewBox="0 0 24 24"><path d="M9 18h6M10 22h4M9 17v-1c-2-1.2-3-3.2-3-5.5a6 6 0 0 1 12 0c0 2.3-1 4.3-3 5.5v1z"/></symbol>
    <symbol id="icon-shield" viewBox="0 0 24 24"><path d="M12 2l8 4v6c0 5-3.4 8.5-8 10-4.6-1.5-8-5-8-10V6z"/><path d="M8.5 12l2.2 2.2 4.8-5"/></symbol>
    <symbol id="icon-megaphone" viewBox="0 0 24 24"><path d="M4 10v4l12 4V6zM16 9h3M17 5l2-2M17 19l2 2M6 15l2 6h3l-2-5"/></symbol>
    <symbol id="icon-dashboard" viewBox="0 0 24 24"><rect x="3" y="3" width="18" height="18" rx="3"/><path d="M7 15l3-3 3 2 4-5M7 18h10"/></symbol>
  </defs>
  <rect width="1800" height="1000" fill="url(#bg)"/>
  <g font-family="Apple SD Gothic Neo, Noto Sans KR, sans-serif">
    <text x="80" y="76" font-size="40" font-weight="700" fill="#102A43">ZeroFest AI 서비스 이용 흐름</text>
    <text x="80" y="116" font-size="20" fill="#667B8E">행사 준비부터 현장 실행·학생 수요 전환·재예측까지 이어지는 7단계 운영 여정</text>

    <!-- phase labels -->
    <rect x="80" y="154" width="380" height="40" rx="20" fill="#EAF2FF"/><text x="270" y="180" text-anchor="middle" font-size="15" font-weight="700" fill="#286BE6">행사 준비</text>
    <rect x="490" y="154" width="380" height="40" rx="20" fill="#EAF7F2"/><text x="680" y="180" text-anchor="middle" font-size="15" font-weight="700" fill="#1E936A">현장 데이터</text>
    <rect x="900" y="154" width="790" height="40" rx="20" fill="#FFF1E8"/><text x="1295" y="180" text-anchor="middle" font-size="15" font-weight="700" fill="#D76819">AI 분석·운영 의사결정</text>

    <!-- top row cards 1-4 -->
    <g filter="url(#shadow)">
      <rect x="80" y="225" width="380" height="245" rx="24" fill="#FFFFFF" stroke="#3478F6" stroke-width="3"/>
      <rect x="490" y="225" width="380" height="245" rx="24" fill="#FFFFFF" stroke="#3478F6" stroke-width="3"/>
      <rect x="900" y="225" width="380" height="245" rx="24" fill="#FFFFFF" stroke="#27A65A" stroke-width="3"/>
      <rect x="1310" y="225" width="380" height="245" rx="24" fill="#FFFFFF" stroke="#F47B20" stroke-width="3"/>
    </g>
    <g>
      <circle cx="130" cy="275" r="27" fill="#3478F6"/><text x="130" y="284" text-anchor="middle" font-size="25" font-weight="700" fill="#FFFFFF">1</text>
      <circle cx="540" cy="275" r="27" fill="#3478F6"/><text x="540" y="284" text-anchor="middle" font-size="25" font-weight="700" fill="#FFFFFF">2</text>
      <circle cx="950" cy="275" r="27" fill="#27A65A"/><text x="950" y="284" text-anchor="middle" font-size="25" font-weight="700" fill="#FFFFFF">3</text>
      <circle cx="1360" cy="275" r="27" fill="#F47B20"/><text x="1360" y="284" text-anchor="middle" font-size="25" font-weight="700" fill="#FFFFFF">4</text>
    </g>
    <g fill="none" stroke-width="2" stroke-linecap="round" stroke-linejoin="round">
      <circle cx="410" cy="275" r="28" fill="#EAF2FF" stroke="none"/><use href="#icon-calendar" x="396" y="261" width="28" height="28" stroke="#286BE6"/>
      <circle cx="820" cy="275" r="28" fill="#EAF2FF" stroke="none"/><use href="#icon-input" x="806" y="261" width="28" height="28" stroke="#286BE6"/>
      <circle cx="1230" cy="275" r="28" fill="#EAF7F2" stroke="none"/><use href="#icon-chart" x="1216" y="261" width="28" height="28" stroke="#1E936A"/>
      <circle cx="1640" cy="275" r="28" fill="#FFF1E8" stroke="none"/><use href="#icon-bulb" x="1626" y="261" width="28" height="28" stroke="#D76819"/>
    </g>
    <g font-size="25" font-weight="700" fill="#18364F">
      <text x="175" y="284">행사 전 등록</text><text x="585" y="284">행사 중 입력</text><text x="995" y="284">AI 분석</text><text x="1405" y="284">운영 추천</text>
    </g>
    <g font-size="18" fill="#314E65">
      <text x="115" y="344">부스 · 메뉴 · 가격</text><text x="115" y="376">초기 재고 등록</text>
      <text x="525" y="344">판매량 · 현재 재고 입력</text><text x="525" y="376">날씨 · 시간 · 공연 결합</text>
      <text x="935" y="344">향후 판매량 · 종료 시점</text><text x="935" y="376">예상 잔여재고 예측</text><text x="935" y="408">폐기 위험도 판단</text>
      <text x="1345" y="344">할인 · 추가 조리 중단</text><text x="1345" y="376">재고 이동 Action</text><text x="1345" y="408">추천 근거 제시</text>
    </g>
    <g>
      <rect x="115" y="414" width="178" height="38" rx="19" fill="#EAF2FF"/><text x="204" y="439" text-anchor="middle" font-size="15" font-weight="700" fill="#286BE6">부스 운영자</text>
      <rect x="525" y="414" width="198" height="38" rx="19" fill="#EAF2FF"/><text x="624" y="439" text-anchor="middle" font-size="15" font-weight="700" fill="#286BE6">운영자 + 시스템</text>
      <rect x="935" y="414" width="178" height="38" rx="19" fill="#EAF7F2"/><text x="1024" y="439" text-anchor="middle" font-size="15" font-weight="700" fill="#1E936A">수요예측 ML</text>
      <rect x="1345" y="414" width="178" height="38" rx="19" fill="#FFF1E8"/><text x="1434" y="439" text-anchor="middle" font-size="15" font-weight="700" fill="#D76819">규칙 + Agent</text>
    </g>

    <!-- top arrows -->
    <g stroke="#899AAA" stroke-width="4"><line x1="460" y1="347" x2="490" y2="347"/><line x1="870" y1="347" x2="900" y2="347"/><line x1="1280" y1="347" x2="1310" y2="347"/></g>
    <g fill="#899AAA"><path d="M490 347L474 337L474 357Z"/><path d="M900 347L884 337L884 357Z"/><path d="M1310 347L1294 337L1294 357Z"/></g>

    <!-- down turn 4 to 5 -->
    <path d="M1500 470L1500 545" fill="none" stroke="#899AAA" stroke-width="4"/>
    <path d="M1500 545L1490 528L1510 528Z" fill="#899AAA"/>

    <!-- bottom row cards 7-5, read right to left -->
    <g filter="url(#shadow)">
      <rect x="180" y="575" width="430" height="240" rx="24" fill="#FFFFFF" stroke="#14A57F" stroke-width="3"/>
      <rect x="685" y="575" width="430" height="240" rx="24" fill="#FFFFFF" stroke="#8252F2" stroke-width="3"/>
      <rect x="1190" y="575" width="430" height="240" rx="24" fill="#FFFFFF" stroke="#F05252" stroke-width="3"/>
    </g>
    <g>
      <circle cx="230" cy="625" r="27" fill="#14A57F"/><text x="230" y="634" text-anchor="middle" font-size="25" font-weight="700" fill="#FFFFFF">7</text>
      <circle cx="735" cy="625" r="27" fill="#8252F2"/><text x="735" y="634" text-anchor="middle" font-size="25" font-weight="700" fill="#FFFFFF">6</text>
      <circle cx="1240" cy="625" r="27" fill="#F05252"/><text x="1240" y="634" text-anchor="middle" font-size="25" font-weight="700" fill="#FFFFFF">5</text>
    </g>
    <g fill="none" stroke-width="2" stroke-linecap="round" stroke-linejoin="round">
      <circle cx="560" cy="625" r="28" fill="#EAF7F2" stroke="none"/><use href="#icon-dashboard" x="546" y="611" width="28" height="28" stroke="#1E936A"/>
      <circle cx="1065" cy="625" r="28" fill="#F2EDFF" stroke="none"/><use href="#icon-megaphone" x="1051" y="611" width="28" height="28" stroke="#7047EB"/>
      <circle cx="1570" cy="625" r="28" fill="#FFF0F0" stroke="none"/><use href="#icon-shield" x="1556" y="611" width="28" height="28" stroke="#C83C3C"/>
    </g>
    <g font-size="24" font-weight="700" fill="#18364F">
      <text x="275" y="634">재예측 · 통합 관제</text><text x="780" y="634">실행 · 수요 전환</text><text x="1285" y="634">운영자 승인</text>
    </g>
    <g font-size="18" fill="#314E65">
      <text x="215" y="694">변경된 판매 · 재고 재분석</text><text x="215" y="726">잔여재고 · 위험도 갱신</text><text x="215" y="758">학생회 전체 부스 관제</text>
      <text x="720" y="694">승인된 할인만 학생 화면 반영</text><text x="720" y="726">주변 혜택 노출로 구매 유도</text>
      <text x="1225" y="694">추천 내용 · 근거 확인</text><text x="1225" y="726">실행 또는 거절 결정</text><text x="1225" y="758">미승인 시 실행 없음</text>
    </g>
    <g>
      <rect x="215" y="768" width="210" height="34" rx="17" fill="#EAF7F2"/><text x="320" y="791" text-anchor="middle" font-size="14" font-weight="700" fill="#1E936A">AI + 학생회 대시보드</text>
      <rect x="720" y="768" width="178" height="34" rx="17" fill="#F2EDFF"/><text x="809" y="791" text-anchor="middle" font-size="14" font-weight="700" fill="#7047EB">운영자 + 학생</text>
      <rect x="1225" y="768" width="198" height="34" rx="17" fill="#FFF0F0"/><text x="1324" y="791" text-anchor="middle" font-size="14" font-weight="700" fill="#C83C3C">Human-in-the-loop</text>
    </g>

    <!-- bottom arrows: 5 to 6 to 7 -->
    <g stroke="#899AAA" stroke-width="4"><line x1="1190" y1="695" x2="1115" y2="695"/><line x1="685" y1="695" x2="610" y2="695"/></g>
    <g fill="#899AAA"><path d="M1115 695L1132 685L1132 705Z"/><path d="M610 695L627 685L627 705Z"/></g>

    <!-- rolling loop 7 back to 2 -->
    <path d="M395 815L395 862L680 862L680 845L680 470" fill="none" stroke="#14A57F" stroke-width="4" stroke-dasharray="10 8"/>
    <path d="M680 470L670 488L690 488Z" fill="#14A57F"/>
    <rect x="470" y="838" width="420" height="48" rx="24" fill="#E7F7F1"/>
    <text x="680" y="869" text-anchor="middle" font-size="16" font-weight="700" fill="#168765">30분 Rolling Loop · 새 판매·재고를 ② 현재 상태로 환류</text>

    <rect x="965" y="850" width="655" height="58" rx="18" fill="#102A43"/>
    <text x="1292" y="886" text-anchor="middle" font-size="17" font-weight="700" fill="#FFFFFF">AI는 추천하고, 사람은 승인하며, 승인된 정보만 학생에게 노출됩니다.</text>
    <text x="80" y="954" font-size="15" fill="#6A7D90">역할 분리: 운영자 입력·승인 │ ML 예측 │ 규칙·Agent 추천 │ 학생 수요 반응 │ 학생회 통합 관제</text>
  </g>
</svg>
